<?xml version="1.0" standalone="no"?>
<!DOCTYPE svg PUBLIC "-//W3C//DTD SVG 20010904//EN"
 "http://www.w3.org/TR/2001/REC-SVG-20010904/DTD/svg10.dtd">
<svg version="1.0" xmlns="http://www.w3.org/2000/svg"
 width="512.000000pt" height="512.000000pt" viewBox="0 0 512.000000 512.000000"
 preserveAspectRatio="xMidYMid meet">
<metadata>
Created by potrace 1.14, written by Peter Selinger 2001-2017
</metadata>
<g transform="translate(0.000000,512.000000) scale(0.100000,-0.100000)"
fill="#000000" stroke="none">
<path d="M1569 4365 c-676 -92 -1217 -610 -1348 -1289 -12 -59 -21 -129 -21
-157 0 -52 -4 -59 -75 -113 -92 -71 -101 -231 -18 -319 l27 -27 -31 -33 c-71
-74 -110 -199 -99 -312 9 -87 62 -190 131 -253 l55 -51 0 -243 c0 -134 5 -272
11 -307 38 -239 191 -416 429 -497 53 -18 124 -19 1930 -19 1806 0 1877 1
1930 19 238 81 391 258 429 497 6 35 11 173 11 307 l0 243 55 51 c69 63 122
166 131 253 11 110 -30 240 -98 312 l-31 32 36 41 c79 93 66 229 -30 308 -21
18 -45 38 -54 45 -11 10 -18 40 -23 98 -24 307 -170 639 -390 889 -254 289
-601 474 -986 526 -147 19 -1827 19 -1971 -1z m1863 -145 c221 -18 379 -63
565 -160 434 -227 713 -638 768 -1132 l6 -58 -1833 -2 -1833 -3 -3 -42 -3 -43
-104 0 -104 0 -3 43 -3 42 -268 3 -268 2 6 58 c55 494 334 905 768 1132 180
94 351 143 550 160 138 11 1624 11 1759 0z m-2316 -2760 c295 -159 542 -290
547 -290 6 0 252 131 548 290 l537 290 1011 0 1011 0 0 -85 0 -85 -810 0 -810
0 0 -80 0 -80 810 0 810 0 0 -63 c0 -207 -121 -373 -322 -444 -51 -17 -130
-18 -1888 -18 -1758 0 -1837 1 -1888 18 -161 57 -266 168 -307 324 -11 43 -15
115 -15 285 l0 228 115 0 114 0 537 -290z m1293 286 c-11 -11 -735 -399 -745
-399 -11 0 -722 379 -738 395 -6 4 327 8 739 8 411 0 746 -2 744 -4z"/>
<path d="M1690 3970 l0 -81 118 3 117 3 3 78 3 77 -121 0 -120 0 0 -80z"/>
<path d="M2442 3973 l3 -78 115 0 115 0 3 78 3 77 -121 0 -121 0 3 -77z"/>
<path d="M3192 3973 l3 -78 120 0 120 0 3 78 3 77 -126 0 -126 0 3 -77z"/>
<path d="M1310 3640 l0 -80 120 0 120 0 0 80 0 80 -120 0 -120 0 0 -80z"/>
<path d="M2062 3643 l3 -78 120 0 120 0 0 75 0 75 -123 3 -123 3 3 -78z"/>
<path d="M2814 3706 c-3 -7 -4 -42 -2 -77 l3 -64 120 0 120 0 3 78 3 77 -121
0 c-92 0 -122 -3 -126 -14z"/>
<path d="M3570 3640 l0 -80 120 0 120 0 0 80 0 80 -120 0 -120 0 0 -80z"/>
</g>
</svg>
